<svg width="18" height="18" viewBox="0 0 18 18" fill="none" xmlns="http://www.w3.org/2000/svg">
<path d="M14.2838 5.55078C14.5673 5.26728 14.7233 4.89078 14.7233 4.49028C14.7233 4.08978 14.5673 3.71328 14.2838 3.42978L13.0942 2.24028C12.8108 1.95678 12.4342 1.80078 12.0338 1.80078C11.6333 1.80078 11.2568 1.95678 10.974 2.23953L3 10.1888V13.5H6.30975L14.2838 5.55078ZM12.0338 3.30078L13.224 4.48953L12.0315 5.67753L10.842 4.48878L12.0338 3.30078ZM4.5 12V10.8113L9.78 5.54778L10.9695 6.73728L5.69025 12H4.5ZM3 15H15V16.5H3V15Z" fill="#000201"/>
</svg>
